<svg width="31" height="25" viewBox="0 0 31 25" fill="currentColor" xmlns="http://www.w3.org/2000/svg">
	<path d="M26.2421 2.50997C24.2367 1.57099 22.0925 0.888543 19.8509 0.5C19.5755 0.998132 19.2539 1.66812 19.0322 2.20112C16.6492 1.84247 14.2881 1.84247 11.949 2.20112C11.7273 1.66812 11.3983 0.998132 11.1206 0.5C8.87648 0.888543 6.72984 1.57348 4.72453 2.51495C0.679785 8.63201 -0.41668 14.5972 0.131553 20.4776C2.81424 22.4826 5.41408 23.7005 7.97006 24.4975C8.60114 23.6283 9.16399 22.7043 9.64888 21.7304C8.72541 21.3792 7.84093 20.9459 7.00517 20.4427C7.2269 20.2784 7.44376 20.1065 7.65331 19.9297C12.7507 22.3157 18.289 22.3157 23.3255 19.9297C23.5374 20.1065 23.7543 20.2784 23.9736 20.4427C23.1354 20.9483 22.2485 21.3817 21.325 21.7329C21.8099 22.7043 22.3703 23.6308 23.0038 24.5C25.5622 23.703 28.1645 22.4851 30.8472 20.4776C31.4905 13.6607 29.7483 7.75031 26.2421 2.50997ZM10.3433 16.8612C8.81313 16.8612 7.55828 15.4315 7.55828 13.6906C7.55828 11.9496 8.78632 10.5175 10.3433 10.5175C11.9003 10.5175 13.1551 11.9471 13.1283 13.6906C13.1308 15.4315 11.9003 16.8612 10.3433 16.8612ZM20.6355 16.8612C19.1053 16.8612 17.8504 15.4315 17.8504 13.6906C17.8504 11.9496 19.0785 10.5175 20.6355 10.5175C22.1924 10.5175 23.4473 11.9471 23.4205 13.6906C23.4205 15.4315 22.1924 16.8612 20.6355 16.8612Z" />
</svg>
