<?xml version="1.0" encoding="UTF-8" standalone="no"?>
<!-- Created with Inkscape (http://www.inkscape.org/) -->

<svg
   width="680"
   height="240"
   viewBox="0 0 170 60"
   version="1.1"
   id="svg5"
   inkscape:version="1.2.2 (b0a8486541, 2022-12-01)"
   xml:space="preserve"
   sodipodi:docname="BubbleFish-rebrand.svg"
   xmlns:inkscape="http://www.inkscape.org/namespaces/inkscape"
   xmlns:sodipodi="http://sodipodi.sourceforge.net/DTD/sodipodi-0.dtd"
   xmlns="http://www.w3.org/2000/svg"
   xmlns:svg="http://www.w3.org/2000/svg"
   xmlns:rdf="http://www.w3.org/1999/02/22-rdf-syntax-ns#"
   xmlns:cc="http://creativecommons.org/ns#"><sodipodi:namedview
     id="namedview7"
     pagecolor="#000000"
     bordercolor="#ffffff"
     borderopacity="1"
     inkscape:showpageshadow="false"
     inkscape:pageopacity="0"
     inkscape:pagecheckerboard="false"
     inkscape:deskcolor="#000000"
     inkscape:document-units="px"
     showgrid="false"
     showborder="true"
     shape-rendering="auto"
     showguides="false"
     inkscape:zoom="6.96875"
     inkscape:cx="15.139013"
     inkscape:cy="26.116592"
     inkscape:window-width="1920"
     inkscape:window-height="1048"
     inkscape:window-x="0"
     inkscape:window-y="32"
     inkscape:window-maximized="1"
     inkscape:current-layer="layer1" /><defs
     id="defs2"><inkscape:path-effect
       effect="fill_between_many"
       method="originald"
       linkedpaths="#path28352,0,1"
       id="path-effect32098"
       is_visible="true"
       lpeversion="0"
       join="true"
       close="true"
       autoreverse="true" /><inkscape:path-effect
       effect="bspline"
       id="path-effect20458"
       is_visible="true"
       lpeversion="1"
       weight="33.3333"
       steps="2"
       helper_size="0"
       apply_no_weight="true"
       apply_with_weight="true"
       only_selected="true"
       uniform="false" /><inkscape:path-effect
       effect="fillet_chamfer"
       id="path-effect20456"
       is_visible="true"
       lpeversion="1"
       nodesatellites_param="F,0,0,1,0,0,0,1 @ F,0,0,1,0,0,0,1 @ F,0,1,1,0,0,0,1 @ F,0,1,1,0,0,0,1 @ F,0,1,1,0,0,0,1 @ F,0,1,1,0,0,0,1 @ F,0,1,1,0,0,0,1 @ F,0,1,1,0,0,0,1 @ F,0,0,1,0,0,0,1 @ F,0,0,1,0,0,0,1 @ F,0,0,1,0,0,0,1 @ F,0,0,1,0,0,0,1 @ F,0,0,1,0,0,0,1 @ F,0,0,1,0,0,0,1 @ F,0,0,1,0,0,0,1 @ F,0,0,1,0,0,0,1 @ F,0,0,1,0,0,0,1 @ F,0,0,1,0,0,0,1 @ F,0,0,1,0,0,0,1 @ F,0,0,1,0,0,0,1 @ F,0,0,1,0,0,0,1 @ F,0,0,1,0,0,0,1 @ F,0,0,1,0,0,0,1 @ F,0,1,1,0,0,0,1 @ F,0,1,1,0,0,0,1 @ F,0,0,1,0,0,0,1 @ F,0,0,1,0,0,0,1 @ F,0,1,1,0,0,0,1 @ F,0,1,1,0,0,0,1 @ F,0,1,1,0,0,0,1 @ F,0,1,1,0,0,0,1 @ F,0,1,1,0,0,0,1 @ F,0,1,1,0,0,0,1 @ F,0,0,1,0,0,0,1 @ F,0,1,1,0,0,0,1 @ F,0,1,1,0,0,0,1 @ F,0,1,1,0,0,0,1 @ F,0,1,1,0,0,0,1 @ F,0,1,1,0,0,0,1 @ F,0,1,1,0,0,0,1 | F,0,0,1,0,0,0,1 @ F,0,0,1,0,0,0,1 @ F,0,0,1,0,0,0,1 @ F,0,0,1,0,0,0,1 @ F,0,0,1,0,0,0,1 | F,0,0,1,0,0,0,1 @ F,0,0,1,0,0,0,1 @ F,0,0,1,0,0,0,1 @ F,0,0,1,0,0,0,1"
       unit="px"
       method="bezier"
       mode="F"
       radius="0"
       chamfer_steps="1"
       flexible="false"
       use_knot_distance="true"
       apply_no_radius="true"
       apply_with_radius="true"
       only_selected="true"
       hide_knots="false" /><inkscape:path-effect
       effect="fill_between_many"
       method="originald"
       linkedpaths="#path28352,0,1"
       id="path-effect29176"
       is_visible="true"
       lpeversion="0"
       join="true"
       close="true"
       autoreverse="true" /></defs><g
     inkscape:label="Layer 1"
     inkscape:groupmode="layer"
     id="layer1"><rect
       style="fill:#fe3f3f;fill-opacity:1;stroke-width:4;stroke-linecap:square;paint-order:stroke fill markers"
       id="rect356"
       width="170"
       height="60"
       x="0"
       y="0" /><path
       id="path23914"
       style="fill:#b72c46;fill-opacity:1;stroke:none;stroke-width:3.99999;stroke-linecap:square;paint-order:stroke fill markers"
       d="m 67.654935,22.222405 v 24.981691 h 29.936351 l 6.053134,-14.614457 -3.29411,-1.364718 A 10.961225,10.998827 3.2612705e-7 0 0 101.65715,26.034874 10.961225,10.998827 3.2612705e-7 0 0 90.695662,15.036085 10.961225,10.998827 3.2612705e-7 0 0 80.198515,22.87711 l -2.139046,-0.886232 -1.441894,-3.480612 z" /><path
       id="path25387"
       style="color:#000000;fill:#fefefe;fill-opacity:1;stroke-width:0.750001;stroke-linecap:square;paint-order:stroke fill markers"
       d="m 84.315008,9.8942873 -0.496014,0.0052 c -0.270156,0.032 -0.541621,0.062792 -0.803256,0.1028477 -0.261636,0.04005 -0.513556,0.08667 -0.74988,0.151018 -0.118162,0.03217 -0.231105,0.07067 -0.33979,0.111961 -0.108683,0.04129 -0.211432,0.08557 -0.308543,0.137999 -0.09711,0.05243 -0.188656,0.112747 -0.272092,0.178358 -0.08343,0.06561 -0.160167,0.139204 -0.227827,0.220018 -0.06766,0.08081 -0.124845,0.16717 -0.178358,0.262979 -0.05352,0.09581 -0.102218,0.200056 -0.147112,0.308544 -0.08979,0.216981 -0.170595,0.455687 -0.259073,0.709521 -0.04424,0.126919 -0.091,0.260503 -0.143207,0.393167 -0.05221,0.132685 -0.108758,0.266184 -0.174452,0.402279 -0.0657,0.136095 -0.137905,0.272874 -0.22262,0.41009 -0.08472,0.137223 -0.181054,0.275368 -0.290318,0.411392 -0.109263,0.136026 -0.231661,0.268677 -0.365827,0.400978 -0.134167,0.132298 -0.279321,0.263496 -0.433524,0.38926 -0.154202,0.125761 -0.317525,0.249416 -0.486901,0.365826 -0.169373,0.116414 -0.347578,0.226425 -0.527259,0.330676 -0.17968,0.10425 -0.359061,0.201043 -0.544183,0.290318 -0.185122,0.08927 -0.372805,0.16936 -0.558504,0.240847 -0.185699,0.07149 -0.371884,0.136591 -0.553295,0.187477 -0.181411,0.05089 -0.358907,0.0884 -0.531164,0.115866 -0.172261,0.02748 -0.33969,0.04282 -0.501222,0.04947 -0.161529,0.0067 -0.316093,0.006 -0.468675,0 -0.305163,-0.01197 -0.594831,-0.0399 -0.874859,-0.05338 -0.140015,-0.0067 -0.278902,-0.01037 -0.415298,-0.0052 -0.136394,0.0051 -0.27163,0.01512 -0.406185,0.04036 -0.134554,0.02522 -0.267789,0.06239 -0.402279,0.115867 -0.13449,0.05348 -0.269982,0.1249 -0.406184,0.214808 -0.136202,0.08991 -0.27505,0.198888 -0.411393,0.325468 -0.136343,0.12658 -0.269046,0.269049 -0.400977,0.424411 -0.131931,0.155362 -0.261089,0.32367 -0.384053,0.49992 -0.122967,0.176233 -0.239452,0.360147 -0.348902,0.549391 -0.109449,0.189244 -0.211955,0.38629 -0.303337,0.580636 -0.09138,0.194344 -0.172092,0.389081 -0.240846,0.580636 -0.06876,0.191555 -0.123759,0.377633 -0.165339,0.558504 -0.04158,0.18087 -0.07087,0.355852 -0.08072,0.518145 -0.0099,0.162295 -0.0026,0.314017 0.01824,0.455656 0.02082,0.141641 0.0578,0.272442 0.102847,0.397072 0.04505,0.124631 0.09731,0.24154 0.160132,0.352808 0.06283,0.111268 0.135458,0.214811 0.209601,0.316355 0.148283,0.203093 0.309927,0.394566 0.464769,0.580636 0.07742,0.09303 0.154538,0.183051 0.223921,0.277299 0.06938,0.09425 0.132584,0.191218 0.187469,0.290319 0.05489,0.0991 0.09968,0.203255 0.137999,0.308544 0.03832,0.105292 0.06977,0.210894 0.09373,0.321563 0.02397,0.11067 0.04155,0.223249 0.05338,0.338487 0.0072,0.06999 0.0064,0.14303 0.0091,0.214808 0.0099,0.845306 -0.02832,1.504455 -0.143206,2.263959 -0.01109,0.09895 -0.02546,0.205428 -0.04427,0.316356 -0.01949,0.114938 -0.04158,0.220386 -0.06249,0.312449 -0.02584,0.113897 -0.04949,0.217571 -0.07551,0.308545 -0.03116,0.108953 -0.06679,0.206683 -0.09894,0.29943 v 0.0038 c -0.02842,0.08204 -0.06392,0.172971 -0.111961,0.290317 -0.03846,0.09395 -0.08266,0.198174 -0.128886,0.295526 -0.05407,0.113686 -0.103943,0.209036 -0.143206,0.281204 -0.03303,0.06071 -0.08036,0.14534 -0.156226,0.268187 -0.03983,0.06448 -0.07188,0.111126 -0.106753,0.164035 l -0.0052,0.0052 c -0.06093,0.09857 -0.120602,0.177016 -0.182262,0.262979 -0.02416,0.03209 -0.04687,0.06209 -0.0716,0.09373 -0.06484,0.08298 -0.127457,0.15865 -0.200488,0.242148 -0.06059,0.06928 -0.134247,0.149238 -0.218714,0.23564 -0.06526,0.06676 -0.144297,0.142721 -0.233034,0.223921 -0.104378,0.09562 -0.186477,0.165978 -0.244748,0.213598 l 0.11066,-0.08462 c -0.184603,0.138424 -0.352838,0.284759 -0.518146,0.451748 -0.15637,0.157962 -0.313748,0.345646 -0.459562,0.549392 -0.122364,0.1692 -0.251527,0.364915 -0.37494,0.610577 -0.119106,0.236895 -0.188724,0.426947 -0.240846,0.580637 -0.08384,0.241081 -0.146003,0.489364 -0.183565,0.701709 -0.0404,0.228683 -0.06764,0.466188 -0.0716,0.731655 v 0.04946 0.04946 c 0.0039,0.279271 0.03478,0.511562 0.0677,0.705616 v 0.0091 0.004 c 0.03311,0.190956 0.08351,0.429259 0.178358,0.705617 0.0013,0.0037 0.0026,0.0054 0.0039,0.0091 0.0645,0.188557 0.152423,0.400322 0.259073,0.607974 0.108513,0.211273 0.227494,0.39828 0.361921,0.584541 0.145603,0.203381 0.303646,0.391807 0.459561,0.549392 0.165787,0.167466 0.334567,0.312718 0.518146,0.450448 l 0.03124,0.02733 0.03645,0.02213 c 0.237234,0.169467 0.426687,0.272965 0.56241,0.343695 0.135327,0.07057 0.375213,0.195115 0.718634,0.303338 0.238906,0.07535 0.472793,0.122939 0.692597,0.156214 0.22638,0.03415 0.456342,0.05468 0.691295,0.05468 h 2.702691 0.56241 v -0.0054 c 0.01818,0.0032 0.03517,0.01386 0.05338,0.0144 0.374444,0.008 0.881334,0.02186 1.420344,0.05338 0.269505,0.01573 0.544929,0.03285 0.816275,0.05727 0.271348,0.02453 0.539344,0.05471 0.786332,0.08983 0.24699,0.03514 0.47273,0.07719 0.669164,0.124967 0.09821,0.024 0.192726,0.04809 0.273393,0.07551 0.08066,0.02741 0.14976,0.05866 0.209601,0.08983 0.119679,0.06236 0.223612,0.133525 0.316355,0.209593 0.09274,0.07607 0.174413,0.154748 0.246054,0.240841 0.07165,0.08609 0.136299,0.180904 0.192679,0.273394 0.05638,0.09252 0.104068,0.185917 0.151019,0.281203 0.0939,0.190555 0.176973,0.38257 0.268185,0.562411 0.04561,0.08991 0.09343,0.177304 0.147112,0.259078 0.05369,0.08177 0.110753,0.157815 0.178359,0.227829 0.0676,0.07004 0.144592,0.134113 0.227826,0.191384 0.08323,0.0573 0.171387,0.106009 0.268187,0.152322 0.0968,0.04628 0.200258,0.08801 0.308544,0.124966 0.108292,0.03698 0.220776,0.06828 0.338488,0.09764 0.235423,0.05866 0.490484,0.104863 0.751181,0.143203 0.260696,0.03836 0.52994,0.07121 0.79935,0.102837 0.163734,-0.0015 0.327078,-0.0037 0.490807,-0.0054 0.273504,-0.03274 0.547124,-0.06596 0.81237,-0.106756 0.265245,-0.04082 0.524541,-0.08612 0.7642,-0.151016 0.119828,-0.03244 0.233512,-0.07052 0.343694,-0.111955 0.110183,-0.04144 0.214078,-0.09076 0.31245,-0.143204 0.09838,-0.05248 0.192902,-0.108969 0.277299,-0.174452 0.08439,-0.06549 0.159577,-0.138217 0.227828,-0.218711 0.06826,-0.08049 0.128302,-0.167493 0.182262,-0.262971 0.05396,-0.09545 0.101895,-0.200394 0.147112,-0.308545 0.09043,-0.216285 0.166423,-0.456206 0.255167,-0.709521 0.04437,-0.126672 0.09484,-0.256785 0.147112,-0.38926 0.05227,-0.132486 0.108732,-0.264944 0.174452,-0.400978 0.06572,-0.136032 0.137903,-0.2741 0.22262,-0.411393 0.08471,-0.137311 0.181061,-0.273814 0.290319,-0.410088 0.109263,-0.136245 0.23303,-0.269626 0.367128,-0.40228 0.134111,-0.132645 0.278134,-0.266978 0.432221,-0.393166 0.154109,-0.126166 0.317688,-0.245027 0.486903,-0.36192 0.169199,-0.116888 0.342572,-0.229856 0.522049,-0.334584 0.179491,-0.104703 0.364505,-0.200608 0.549392,-0.290316 0.184877,-0.08972 0.373071,-0.174185 0.558505,-0.246041 0.185437,-0.07186 0.368269,-0.131098 0.549389,-0.182264 0.181118,-0.05114 0.359217,-0.09343 0.531166,-0.121074 0.171945,-0.0276 0.338833,-0.04274 0.499919,-0.04946 0.161094,-0.007 0.316664,-0.0059 0.468674,0 0.304026,0.01174 0.592484,0.04152 0.870957,0.05468 0.13923,0.0064 0.275856,0.0093 0.411392,0.004 0.135525,-0.0054 0.268658,-0.01893 0.402276,-0.04426 0.133606,-0.0256 0.267485,-0.0621 0.400979,-0.115875 0.133498,-0.05378 0.267116,-0.12454 0.402279,-0.214819 0.135151,-0.09028 0.270706,-0.199888 0.406185,-0.326771 0.135472,-0.126887 0.271023,-0.272733 0.40228,-0.428316 0.131259,-0.155575 0.261531,-0.323545 0.384053,-0.499919 0.122487,-0.176371 0.238388,-0.360123 0.3476,-0.549392 0.109209,-0.18925 0.208046,-0.381168 0.299429,-0.575427 0.09139,-0.194262 0.171786,-0.389293 0.240841,-0.580638 0.06903,-0.191356 0.128406,-0.381874 0.170559,-0.562408 0.04216,-0.180531 0.06868,-0.352418 0.07941,-0.51424 0.01093,-0.161819 0.007,-0.314675 -0.01306,-0.455656 -0.01973,-0.140975 -0.055,-0.269327 -0.09894,-0.393166 -0.04394,-0.123847 -0.09847,-0.242414 -0.160133,-0.352808 -0.06167,-0.110391 -0.132673,-0.211799 -0.205701,-0.31245 -0.146083,-0.201306 -0.306386,-0.386991 -0.459561,-0.571523 -0.0766,-0.09226 -0.149949,-0.187583 -0.218711,-0.281204 -0.06881,-0.09362 -0.132859,-0.186434 -0.187463,-0.285111 -0.05461,-0.09868 -0.102598,-0.218264 -0.143204,-0.348902 -0.04061,-0.130637 -0.07428,-0.274449 -0.102837,-0.424411 -0.02856,-0.149965 -0.05311,-0.302905 -0.07162,-0.459562 -0.01866,-0.156657 -0.02997,-0.314051 -0.04037,-0.464768 -0.0208,-0.301434 -0.02586,-0.579242 -0.02613,-0.781126 -1.36e-4,-0.201882 0.004,-0.329406 0.0091,-0.330675 0,0 -0.0062,-0.12742 -0.0054,-0.330676 8.35e-4,-0.203258 0.008,-0.480872 0.02733,-0.78503 0.0096,-0.15208 0.02293,-0.310561 0.04037,-0.468675 0.01733,-0.158113 0.03885,-0.317324 0.06639,-0.468675 0.02754,-0.151351 0.06303,-0.297822 0.102836,-0.429618 0.03981,-0.131797 0.0837,-0.248155 0.138006,-0.3476 0.05424,-0.09945 0.120299,-0.196067 0.188768,-0.290319 0.0685,-0.09425 0.142431,-0.184546 0.218712,-0.277299 0.152642,-0.185506 0.31387,-0.373736 0.459561,-0.575428 0.07284,-0.100844 0.138991,-0.207218 0.200501,-0.317657 0.06154,-0.110441 0.117608,-0.223874 0.161441,-0.3476 0.04384,-0.123728 0.07791,-0.25766 0.09764,-0.398375 0.01973,-0.140712 0.0248,-0.289053 0.0144,-0.450448 -0.0104,-0.161979 -0.03844,-0.334089 -0.08071,-0.51424 -0.04229,-0.180149 -0.100014,-0.36619 -0.169252,-0.557202 -0.06943,-0.191068 -0.15043,-0.386655 -0.242148,-0.580636 -0.09172,-0.193982 -0.193703,-0.387672 -0.303336,-0.57673 -0.109594,-0.189002 -0.225922,-0.373092 -0.348889,-0.549334 -0.122966,-0.176243 -0.252279,-0.344387 -0.38405,-0.499919 -0.131792,-0.155533 -0.264917,-0.301388 -0.400978,-0.428317 -0.136059,-0.126929 -0.275612,-0.236335 -0.411393,-0.32677 -0.135791,-0.09043 -0.272173,-0.159484 -0.406186,-0.213507 -0.134005,-0.05402 -0.263023,-0.09011 -0.397072,-0.115867 -0.134085,-0.02576 -0.270276,-0.04382 -0.406182,-0.04947 -0.135898,-0.0057 -0.271832,-0.0024 -0.411393,0.0039 -0.279125,0.01258 -0.570265,0.04188 -0.87486,0.05338 -0.152295,0.0057 -0.307299,0.0068 -0.468673,0 -0.161361,-0.0068 -0.327657,-0.02077 -0.49992,-0.04817 -0.172239,-0.02741 -0.350807,-0.06508 -0.532466,-0.115864 -0.181678,-0.05078 -0.367152,-0.117429 -0.553298,-0.188772 -0.186157,-0.07134 -0.372786,-0.151747 -0.558504,-0.240847 -0.185704,-0.0891 -0.369016,-0.186269 -0.54939,-0.290318 -0.180371,-0.104034 -0.355847,-0.214485 -0.525958,-0.330676 -0.170106,-0.116189 -0.337167,-0.235093 -0.492108,-0.360619 -0.154935,-0.125527 -0.30258,-0.257207 -0.437431,-0.389261 -0.134858,-0.132053 -0.255959,-0.2652 -0.365827,-0.400977 -0.109659,-0.135876 -0.204992,-0.274335 -0.290093,-0.411216 -0.0851,-0.136881 -0.1619,-0.270486 -0.227827,-0.406184 -0.06593,-0.1357 -0.122123,-0.273955 -0.174452,-0.406185 -0.05233,-0.132231 -0.0976,-0.262784 -0.141904,-0.38926 -0.0886,-0.252953 -0.169127,-0.4894 -0.259073,-0.705616 -0.04497,-0.108108 -0.08954,-0.211749 -0.143206,-0.307242 -0.05367,-0.09549 -0.115626,-0.183687 -0.183564,-0.264281 -0.06794,-0.08059 -0.143819,-0.153225 -0.227828,-0.218715 -0.08401,-0.06549 -0.174173,-0.122058 -0.272092,-0.174451 -0.09792,-0.05239 -0.202783,-0.100599 -0.31245,-0.141904 -0.109666,-0.04131 -0.224439,-0.07583 -0.343694,-0.108056 -0.238512,-0.06445 -0.495089,-0.116032 -0.758993,-0.1562244 -0.263905,-0.040192 -0.53645,-0.070846 -0.808464,-0.1028483 z M 84.1002,16.691372 c 0.318462,0 0.632409,0.01674 0.942556,0.04817 0.310149,0.03142 0.614929,0.078 0.915218,0.1393 0.300288,0.06131 0.595088,0.138189 0.883973,0.227828 0.288883,0.08964 0.572889,0.190804 0.848822,0.307242 0.275936,0.116437 0.547139,0.247573 0.808463,0.38926 0.261451,0.141689 0.513594,0.294163 0.758992,0.459562 0.245401,0.1654 0.481709,0.343598 0.709521,0.531166 0.227803,0.187567 0.448765,0.385464 0.657446,0.593654 0.208687,0.20819 0.40565,0.424969 0.593654,0.652237 0.187996,0.22727 0.365384,0.466016 0.531166,0.710825 0.165786,0.244809 0.322755,0.49819 0.46477,0.758992 0.142004,0.260804 0.271252,0.528001 0.387956,0.803257 0.116729,0.275253 0.218712,0.555447 0.308546,0.843614 0.04493,0.144083 0.08697,0.289855 0.124967,0.437429 0.03802,0.147576 0.07212,0.296779 0.102836,0.446543 0.06143,0.299532 0.106462,0.601957 0.138004,0.911312 0.03148,0.309361 0.04946,0.62492 0.04946,0.942557 -2e-6,0.317635 -0.01787,0.633085 -0.04946,0.942557 -0.03151,0.309354 -0.07652,0.610478 -0.138004,0.910009 -0.06143,0.299531 -0.138004,0.595808 -0.227831,0.883973 -0.08983,0.288165 -0.191809,0.569661 -0.308544,0.844916 -0.116728,0.275256 -0.245934,0.542452 -0.387956,0.803257 -0.142031,0.260803 -0.298992,0.514184 -0.464771,0.758992 -0.165787,0.244809 -0.343164,0.483542 -0.531165,0.710824 -0.187997,0.22727 -0.38496,0.442744 -0.593654,0.650935 -0.20866,0.20818 -0.42964,0.40739 -0.657447,0.594957 -0.227803,0.18757 -0.464123,0.365752 -0.709521,0.531165 -0.2454,0.165388 -0.497554,0.317886 -0.758992,0.459562 -0.261441,0.141711 -0.53253,0.271518 -0.808463,0.387959 -0.275933,0.116434 -0.559939,0.218897 -0.848822,0.308542 -0.288884,0.08964 -0.583686,0.166507 -0.883973,0.22783 -0.300284,0.0613 -0.60507,0.106596 -0.915217,0.138004 -0.310144,0.03143 -0.624097,0.04948 -0.942557,0.04948 h -9.22896 -2.702691 c -0.05962,0 -0.119277,-0.004 -0.178358,-0.01306 -0.05908,-0.0091 -0.117637,-0.0224 -0.174452,-0.04037 -0.05798,-0.01839 -0.110513,-0.04372 -0.164035,-0.07162 -0.05352,-0.02789 -0.108073,-0.0585 -0.157526,-0.09374 -0.0487,-0.03653 -0.09527,-0.07791 -0.138,-0.121074 -0.04273,-0.04317 -0.08098,-0.08823 -0.115866,-0.138004 -0.035,-0.04796 -0.06698,-0.100226 -0.09373,-0.152322 -0.02675,-0.05207 -0.04895,-0.103877 -0.0677,-0.160134 -0.02002,-0.05786 -0.03375,-0.117688 -0.04426,-0.178344 -0.01029,-0.06066 -0.01738,-0.122353 -0.01824,-0.183572 9.14e-4,-0.06122 0.0077,-0.124033 0.01824,-0.18357 0.01042,-0.05954 0.02413,-0.11526 0.04426,-0.173144 0.01874,-0.05626 0.04095,-0.112143 0.0677,-0.165335 0.02673,-0.05321 0.05873,-0.104383 0.09373,-0.152322 0.03489,-0.0498 0.07313,-0.09483 0.115866,-0.138004 0.04275,-0.04319 0.0893,-0.08458 0.138,-0.121074 0.133655,-0.109237 0.262691,-0.223991 0.38926,-0.339792 0.126566,-0.115794 0.251735,-0.234681 0.371034,-0.356712 0.119306,-0.122061 0.235733,-0.247027 0.347601,-0.37494 0.11188,-0.1279 0.217285,-0.255825 0.321563,-0.389259 0.104284,-0.133446 0.206809,-0.271474 0.303336,-0.410091 0.09651,-0.138628 0.188708,-0.280969 0.277299,-0.42441 0.08859,-0.143447 0.173388,-0.285609 0.253866,-0.433525 0.08048,-0.147918 0.15561,-0.298408 0.227828,-0.450447 0.0722,-0.152041 0.141907,-0.308962 0.205695,-0.464769 0.06379,-0.155807 0.123188,-0.309449 0.178357,-0.468676 0.05519,-0.159225 0.105909,-0.319401 0.15232,-0.481692 0.04641,-0.16229 0.08753,-0.327106 0.12498,-0.492109 0.03747,-0.165003 0.06929,-0.332553 0.09764,-0.49992 0.02835,-0.167368 0.05262,-0.334449 0.0716,-0.503825 0.01906,-0.169378 0.03596,-0.343204 0.04557,-0.514241 0.0098,-0.171036 0.01301,-0.340594 0.01301,-0.512938 0,-0.158819 0.0047,-0.316707 0.01301,-0.473882 0.0084,-0.157175 0.02072,-0.313996 0.03645,-0.468675 0.0315,-0.309355 0.07657,-0.611779 0.137999,-0.911312 0.01997,-0.09736 0.04331,-0.193782 0.06639,-0.290318 0.04794,-0.200444 0.100792,-0.399158 0.161433,-0.593654 0.08988,-0.287601 0.191869,-0.568287 0.30856,-0.843543 0.116704,-0.275256 0.245936,-0.542453 0.387959,-0.803256 0.142015,-0.260804 0.298991,-0.514184 0.464769,-0.758993 0.165783,-0.244808 0.343164,-0.483554 0.531165,-0.710823 0.188003,-0.227271 0.384962,-0.444051 0.593654,-0.652239 0.208681,-0.20819 0.42834,-0.406087 0.656145,-0.593654 0.227812,-0.187566 0.465425,-0.365767 0.710824,-0.531166 0.245397,-0.165399 0.497553,-0.317872 0.758992,-0.459562 0.261439,-0.141689 0.532529,-0.272822 0.808463,-0.38926 0.275934,-0.116437 0.558638,-0.217601 0.847521,-0.307242 0.288886,-0.08964 0.583683,-0.166523 0.883972,-0.227827 0.300289,-0.06131 0.606369,-0.107876 0.91652,-0.139301 0.310147,-0.03142 0.622791,-0.04817 0.941256,-0.04817 z m 0,2.286091 c -0.233762,0 -0.46749,0.01063 -0.709522,0.03516 -0.238508,0.02416 -0.471362,0.0629 -0.692596,0.108055 -0.221176,0.04515 -0.438916,0.100621 -0.660051,0.169244 -0.224413,0.06963 -0.439507,0.147459 -0.639221,0.231733 -0.20654,0.08716 -0.410351,0.183919 -0.606673,0.290318 -0.197571,0.107079 -0.387012,0.22454 -0.571523,0.348902 -0.178736,0.120468 -0.359473,0.251424 -0.536373,0.397071 -0.175286,0.144326 -0.337245,0.293343 -0.490805,0.446543 -0.157479,0.157101 -0.304527,0.319126 -0.446543,0.490807 -0.139243,0.168325 -0.27594,0.34981 -0.40228,0.536372 -0.129733,0.19158 -0.24561,0.384224 -0.3476,0.571523 -0.107481,0.197376 -0.20861,0.397768 -0.295526,0.602768 -0.08491,0.200276 -0.158247,0.406925 -0.227827,0.630107 -0.03967,0.127238 -0.07951,0.278191 -0.119773,0.446543 -0.02615,0.109326 -0.04207,0.182616 -0.04947,0.218714 -0.04528,0.220799 -0.08252,0.445581 -0.106753,0.683484 -0.01146,0.112584 -0.02069,0.231468 -0.02735,0.356713 -0.0067,0.125318 -0.0091,0.242481 -0.0091,0.352808 0,0.203674 -0.0052,0.416885 -0.01824,0.643126 -0.01272,0.226605 -0.03084,0.437603 -0.05338,0.637918 -0.02424,0.216323 -0.0538,0.42902 -0.08853,0.634013 -0.03426,0.202295 -0.07646,0.407339 -0.12498,0.620994 -0.04517,0.199021 -0.0962,0.405903 -0.156225,0.615786 -0.05656,0.197776 -0.118197,0.400456 -0.188772,0.60407 -0.07296,0.210598 -0.148299,0.40301 -0.222621,0.584541 -0.0807,0.19712 -0.169586,0.392199 -0.259073,0.580636 -0.08375,0.176294 -0.17358,0.364602 -0.281204,0.562412 -0.112108,0.206046 -0.220589,0.383095 -0.317658,0.540275 -0.10457,0.169279 -0.220532,0.348654 -0.3476,0.531166 -0.08707,0.125019 -0.177846,0.242627 -0.268186,0.36192 h 0.03645 9.228985 c 0.233821,0 0.468928,-0.01066 0.710824,-0.03514 0.238486,-0.02426 0.470149,-0.06293 0.691294,-0.108063 0.22112,-0.04511 0.440235,-0.100651 0.661353,-0.169253 0.224401,-0.06961 0.438161,-0.147415 0.637918,-0.231722 0.206575,-0.08719 0.411687,-0.183944 0.607975,-0.290319 0.197486,-0.107023 0.386972,-0.224497 0.571523,-0.348901 0.178843,-0.120567 0.359521,-0.251453 0.536373,-0.397072 0.175305,-0.144343 0.337237,-0.29334 0.490806,-0.446544 0.157468,-0.157085 0.30452,-0.320415 0.446542,-0.492109 0.139284,-0.168373 0.275961,-0.348532 0.40228,-0.53507 0.129739,-0.191572 0.245586,-0.384205 0.347599,-0.571523 0.107476,-0.197368 0.207327,-0.397745 0.294225,-0.602767 0.08484,-0.200077 0.158215,-0.406809 0.22783,-0.630108 0.06689,-0.214613 0.124487,-0.4406 0.170533,-0.665257 0.04524,-0.220578 0.08252,-0.445473 0.106756,-0.683484 0.02426,-0.239474 0.03645,-0.476461 0.03645,-0.709521 0,-0.233008 -0.01226,-0.470218 -0.03645,-0.709522 -0.02426,-0.2379 -0.06146,-0.462687 -0.106756,-0.683484 -0.024,-0.11757 -0.04959,-0.228995 -0.07682,-0.334581 -0.02722,-0.105549 -0.05863,-0.218072 -0.09374,-0.330676 -0.06961,-0.223298 -0.142964,-0.430033 -0.227831,-0.630107 -0.08692,-0.204971 -0.18674,-0.405332 -0.294221,-0.602778 -0.10201,-0.1873 -0.217885,-0.379943 -0.347601,-0.571522 C 89.730719,21.845079 89.593968,21.66359 89.454766,21.49529 89.312763,21.323613 89.165752,21.161629 89.008225,21.004483 88.854682,20.851254 88.692713,20.702228 88.517461,20.557938 88.340567,20.412294 88.159832,20.28134 87.981088,20.160867 87.79657,20.0365 87.607133,19.919038 87.409566,19.811964 87.213858,19.705853 87.00833,19.608886 86.801591,19.521647 c -0.199711,-0.08427 -0.413507,-0.162098 -0.637919,-0.231734 -0.221114,-0.06861 -0.440163,-0.124087 -0.661351,-0.169243 -0.221227,-0.04516 -0.452779,-0.08389 -0.691296,-0.108056 -0.242021,-0.02452 -0.477054,-0.03516 -0.710822,-0.03516 z" /><path
       inkscape:original-d="M 0,0"
       inkscape:path-effect="#path-effect29176"
       d="M 0,0"
       id="path29178"
       class="UnoptimicedTransforms" /></g><metadata
     id="metadata182"><rdf:RDF><cc:Work
         rdf:about=""><cc:license
           rdf:resource="http://creativecommons.org/licenses/by-nc-sa/4.0/" /></cc:Work><cc:License
         rdf:about="http://creativecommons.org/licenses/by-nc-sa/4.0/"><cc:permits
           rdf:resource="http://creativecommons.org/ns#Reproduction" /><cc:permits
           rdf:resource="http://creativecommons.org/ns#Distribution" /><cc:requires
           rdf:resource="http://creativecommons.org/ns#Notice" /><cc:requires
           rdf:resource="http://creativecommons.org/ns#Attribution" /><cc:prohibits
           rdf:resource="http://creativecommons.org/ns#CommercialUse" /><cc:permits
           rdf:resource="http://creativecommons.org/ns#DerivativeWorks" /><cc:requires
           rdf:resource="http://creativecommons.org/ns#ShareAlike" /></cc:License></rdf:RDF></metadata></svg>
