<svg width="16" height="16" version="1.1" viewBox="0 0 4 4" xmlns="http://www.w3.org/2000/svg">
    <g>
        <path transform="translate(2,2)" d="m5.359e-8 2-0.39119-0.28608-0.47658 0.088014-0.22833-0.42748-0.46757-0.12748-0.02024-0.48421-0.36595-0.31773 0.19186-0.44504-0.19186-0.44504 0.36595-0.31773 0.02024-0.48421 0.46757-0.12748 0.22833-0.42748 0.47658 0.088014 0.39119-0.28608 0.39119 0.28608 0.47658-0.088014 0.22833 0.42748 0.46757 0.12748 0.02024 0.48421 0.36595 0.31773-0.19186 0.44504 0.19186 0.44504-0.36595 0.31773-0.02024 0.48421-0.46757 0.12748-0.22833 0.42748-0.47658-0.088014z" fill="#0049c6" stroke-linejoin="round" stroke-width="4" style="paint-order:stroke fill markers"/>
        <g transform="matrix(.625 0 0 .625 .75 .75006)" fill="#fff" stroke-width="1.6">
            <path d="m0.2678 0.43541 1.2158-0.3907a0.68206 0.68206 0 0 1 0.4173-1.265e-5l1.8313 0.58837-1.4256 0.4584z" style="paint-order:stroke fill markers"/>
            <path d="m2.3057 1.4272-2.3057-0.73389v0.66748a0.33273 0.33273 0 0 0 0.23096 0.31689l2.0732 0.6665c6.292e-4 -0.36884 9.98e-4 -0.69168 0.00146-0.91699z" style="paint-order:stroke fill markers"/>
            <path d="m2.3057 1.4272c-4.669e-4 0.22531-8.357e-4 0.54815-0.00146 0.91699l0.00244 9.765e-4 1.4624-0.46924a0.33255 0.33255 0 0 0 0.23096-0.31689v-0.66748l-1.6919 0.53662z" opacity=".75" style="paint-order:stroke fill markers"/>
            <path d="m2.3037 2.6812c-2.658e-4 0.17067-7.472e-4 0.34746-9.765e-4 0.52588l0.00488 0.00146 0.56445-0.18115v-0.51953l-0.56445 0.17432z" opacity=".25" style="paint-order:stroke fill markers"/>
            <path d="m2.3037 2.6807-1.1245-0.35449v0.51953l1.1235 0.36133c2.293e-4 -0.17842 7.107e-4 -0.35521 9.765e-4 -0.52588z" opacity=".5" style="paint-order:stroke fill markers"/>
            <path d="m2.3022 3.5688c-1.477e-4 0.14022-3.908e-4 0.28007-4.883e-4 0.41699l0.00586 0.00195 1.1289-0.3623v-0.41064l-1.1289 0.35547z" opacity=".75" style="paint-order:stroke fill markers"/>
            <path d="m2.3022 3.5684-1.7388-0.5498v0.40918l1.7383 0.55811c9.75e-5 -0.13692 3.406e-4 -0.27677 4.883e-4 -0.41699z" style="paint-order:stroke fill markers"/>
        </g>
    </g>
</svg>
