<svg xmlns="http://www.w3.org/2000/svg" width="16" height="16" viewBox="0 0 4 4" fill="currentColor">
    <path transform="matrix(1.3713 0 0 1.3713 -.74255 -.78291)"
        d="m0.7368 0.88846 0.88662-0.28492a0.49739 0.49739 180 0 1 0.30432-9.22e-6l1.3355 0.42907-1.0396 0.33429z" />
    <path transform="matrix(1.3713 0 0 1.3713 -.74255 -.78291)"
        d="m0.5415 1.0766v0.48676a0.24264 0.24264 0 0 0 0.16842 0.23109l1.5137 0.48676 7.121e-4 -3.561e-4 1.0657-0.34184a0.24251 0.24251 0 0 0 0.16842-0.23109v-0.48676l-1.2338 0.39133h-3.561e-4l-1.6828-0.5359z" />
    <path d="m1.1792 2.3262v0.51953l1.1284 0.36279 0.56445-0.18115v-0.51953l-0.56445 0.17432-1.1284-0.35596z"
        opacity=".5" />
    <path transform="matrix(1.3713 0 0 1.3713 -.74255 -.78291)"
        d="m0.95242 2.7722v0.29839l1.2719 0.40842 0.82325-0.26421v-0.29946l-0.82325 0.25922-1.2719-0.40237z" />
</svg>
